<?xml version="1.0" encoding="UTF-8"?>
<svg width="73px" height="30px" viewBox="0 0 73 30" version="1.1" xmlns="http://www.w3.org/2000/svg" xmlns:xlink="http://www.w3.org/1999/xlink">
    <!-- Generator: Sketch 52.5 (67469) - http://www.bohemiancoding.com/sketch -->
    <title>logo_white</title>
    <desc>Created with Sketch.</desc>
    <g id="Page-1" stroke="none" stroke-width="1" fill="none" fill-rule="evenodd">
        <g id="logo_white">
            <g>
                <rect id="bg" x="0" y="0" width="73" height="30"></rect>
                <path d="M55.4545031,11.1375004 L55.4545031,20.4758557 C55.4545031,22.4272772 53.7498064,24 51.6581243,24 C51.192195,24 50.8144846,23.6418278 50.8144846,23.2 C50.8144846,22.7581722 51.192195,22.4 51.6581243,22.4 C52.8281612,22.4 53.7672237,21.5336378 53.7672237,20.4758557 L53.7672237,17.3016264 L51.5496244,18.1427813 C51.1170198,18.306872 50.6260465,18.1073393 50.4530047,17.6971126 C50.2799628,17.2868857 50.4903799,16.8213094 50.9229845,16.6572186 L53.7672237,15.5783736 L53.7672237,11.1375004 L50.8144846,11.1375004 C50.3485552,11.1375004 49.9708448,10.7793283 49.9708448,10.3375005 C49.9708448,9.8956727 50.3485552,9.5374995 50.8144846,9.5374995 L53.7672237,9.5374995 L53.7672237,7.13749988 C53.7672237,6.69567208 54.144934,6.3375 54.6108635,6.3375 C55.0767928,6.3375 55.4545031,6.69567208 55.4545031,7.13749988 L55.4545031,9.5374995 L63.0359416,9.5374995 C64.6712907,9.5374995 66,10.7862131 66,12.3302569 L66,18.407243 C66,19.9512867 64.6712907,21.2 63.0359416,21.2 L60.5974601,21.2 C58.9621111,21.2 57.6334017,19.9512867 57.6334017,18.407243 L57.6334017,13.209522 C57.6334017,12.7624353 58.0111122,12.4 58.4770415,12.4 C58.9429709,12.4 59.3206812,12.7624353 59.3206812,13.209522 L59.3206812,18.407243 C59.3206812,19.0643987 59.8905948,19.6 60.5974601,19.6 L63.0359416,19.6 C63.7428071,19.6 64.3127205,19.0643987 64.3127205,18.407243 L64.3127205,12.3302569 C64.3127205,11.6731012 63.7428071,11.1375004 63.0359416,11.1375004 L55.4545031,11.1375004 Z M36.4139493,15.8452658 C36.1495067,17.6856638 35.7474972,19.2463659 35.2493728,20.5457088 C34.9796404,21.2492981 34.6972405,21.8354789 34.4176092,22.310959 C34.2416329,22.610186 34.0992628,22.8125915 34.0060745,22.9250284 C33.7305392,23.2574776 33.2308376,23.3091383 32.8899599,23.040416 C32.5490822,22.7716935 32.4961117,22.2843477 32.771647,21.9518985 C32.7753606,21.9474179 32.7944741,21.9224248 32.8271222,21.8760095 C32.8891774,21.7877865 32.9610072,21.6763463 33.0407416,21.5407674 C33.2774429,21.1382847 33.5230968,20.6283778 33.7626244,20.0035772 C34.2197545,18.8111666 34.59349,17.3602312 34.8420408,15.6304332 C34.9765758,14.6941315 35.1266515,13.3159414 35.2919069,11.4981718 L32.793634,11.4981718 C32.355322,11.4981718 32,11.1516356 32,10.7241614 C32,10.2966872 32.355322,9.95015093 32.793634,9.95015093 L35.4273488,9.95015093 C35.5099648,8.9720354 35.5960077,7.89418898 35.6854385,6.71686172 C35.717821,6.29055579 36.0984232,5.97056869 36.5355373,6.00215054 C36.9726514,6.03373239 37.3007511,6.40492378 37.2683686,6.83122972 C37.182504,7.96161026 37.0997189,9.00117852 37.0199797,9.95015093 L43.3092838,9.95015093 C44.1859076,9.95015093 44.8965517,10.6432235 44.8965517,11.4981718 L44.4997348,21.5603078 C44.4997348,22.4152562 43.7890907,23.1083287 42.9124668,23.1083287 L40.7299735,23.1083287 C40.2916615,23.1083287 39.9363395,22.7617924 39.9363395,22.3343183 C39.9363395,21.906844 40.2916615,21.5603078 40.7299735,21.5603078 L42.3396946,21.5603078 C42.6595277,21.5603078 42.9221881,21.3138051 42.9344803,21.0021107 L43.2855106,12.1009904 C43.2981449,11.7806217 43.0420924,11.5109226 42.7136013,11.4986007 C42.7059794,11.4983148 42.6983525,11.4981718 42.6907249,11.4981718 L36.8853662,11.4981718 C36.7128679,13.4094411 36.5558595,14.857637 36.4139493,15.8452658 Z" id="text" fill="#FFFFFF" fill-rule="nonzero"></path>
                <g id="path" transform="translate(4.000000, 3.000000)">
                    <path d="M14.3098729,17.2119596 C14.8384802,16.6960064 15.6941456,16.6973539 16.2210553,17.2149695 C16.7479648,17.7325851 16.7465887,18.5704581 16.2179814,19.0864113 L13.8707233,21.37748 C11.7051882,23.4912353 8.17391802,23.5218871 5.97186005,21.4486819 C5.9591328,21.4367622 4.97860624,20.4969644 1.74393594,17.3964995 C-0.4080112,15.3339321 -0.622396926,12.0335324 1.40264281,9.91411154 L5.17831189,5.96229333 C7.18812852,3.85858349 10.8929392,3.62865915 13.1908813,5.44518229 L16.6200918,8.15609496 C17.2008241,8.61518443 17.291532,9.44833731 16.8226936,10.016994 C16.3538554,10.5856507 15.5030104,10.6744725 14.9222781,10.2153831 L11.4930907,7.50448867 C10.2913139,6.55448414 8.18906262,6.68495201 7.15206051,7.77040009 L3.37634288,11.7222691 C2.39050328,12.7540558 2.49847446,14.4162375 3.63457769,15.5051534 C6.0098624,17.7818883 7.84046615,19.5364531 7.84258415,19.538443 C8.98741898,20.6162849 10.8385488,20.6002169 11.9626014,19.5030414 L14.3098729,17.2119596 Z" id="combined_shape" fill="#FFA116"></path>
                    <path d="M8.60773362,14.9192114 C7.86136956,14.9192114 7.25632194,14.326745 7.25632194,13.5959005 C7.25632194,12.8650561 7.86136956,12.2725897 8.60773362,12.2725897 L18.5743948,12.2725897 C19.3207588,12.2725897 19.9258065,12.8650561 19.9258065,13.5959005 C19.9258065,14.326745 19.3207588,14.9192114 18.5743948,14.9192114 L8.60773362,14.9192114 Z" id="path_2" fill="#B3B3B3"></path>
                    <path d="M10.4742816,0.419252707 C10.9841844,-0.114444779 11.8393769,-0.142329376 12.3844076,0.356970716 C12.9294384,0.856270809 12.9579151,1.69368081 12.4480122,2.22737829 L3.37641115,11.7223064 C2.39053689,12.7540147 2.49850742,14.4161863 3.63453585,15.5051461 L7.82393547,19.5208066 C8.35729589,20.0320479 8.36642615,20.8698743 7.84432848,21.3921443 C7.32223081,21.9144141 6.46661298,21.9233546 5.93325256,21.4121132 L1.74383356,17.3964342 C-0.407987744,15.3337686 -0.622372721,12.0333805 1.40275725,9.91410048 L10.4742816,0.419252707 Z" id="stroke_3" fill="#FFFFFF"></path>
                </g>
            </g>
        </g>
    </g>
</svg>
